<svg xmlns="http://www.w3.org/2000/svg" xmlns:xlink="http://www.w3.org/1999/xlink"
    zoomAndPan="magnify" preserveAspectRatio="xMidYMid meet" version="1.0"
    viewBox="2.91 171.58 369.1 70.71">
    <style>
        @media (prefers-color-scheme: dark) {
          img {
            filter: invert(1);
            background: none;
          }
        }
      </style>
    <defs>
        <g />
        <clipPath id="f4e89d9e54">
            <path
                d="M 2.90625 176.84375 L 58.40625 176.84375 L 58.40625 227 L 2.90625 227 Z M 2.90625 176.84375 "
                clip-rule="nonzero" />
        </clipPath>
        <clipPath id="910642757a">
            <path d="M 2.90625 207 L 58.40625 207 L 58.40625 227 L 2.90625 227 Z M 2.90625 207 "
                clip-rule="nonzero" />
        </clipPath>
        <clipPath id="c95a1c35bf">
            <path d="M 2.90625 181 L 10 181 L 10 227 L 2.90625 227 Z M 2.90625 181 "
                clip-rule="nonzero" />
        </clipPath>
        <clipPath id="0db01f27d7">
            <path d="M 51 181 L 58.40625 181 L 58.40625 227 L 51 227 Z M 51 181 "
                clip-rule="nonzero" />
        </clipPath>
        <clipPath id="1e144837c2">
            <path d="M 2.90625 207 L 14 207 L 14 227 L 2.90625 227 Z M 2.90625 207 "
                clip-rule="nonzero" />
        </clipPath>
        <clipPath id="3ed7495f83">
            <path d="M 47 207 L 58.40625 207 L 58.40625 227 L 47 227 Z M 47 207 "
                clip-rule="nonzero" />
        </clipPath>
        <clipPath id="3126f02498">
            <path d="M 9 176.84375 L 52 176.84375 L 52 212 L 9 212 Z M 9 176.84375 "
                clip-rule="nonzero" />
        </clipPath>
        <clipPath id="4b1574b354">
            <path
                d="M 2.90625 172.269531 L 58.40625 172.269531 L 58.40625 222.519531 L 2.90625 222.519531 Z M 2.90625 172.269531 "
                clip-rule="nonzero" />
        </clipPath>
        <clipPath id="bd31011e8d">
            <path
                d="M 2.90625 202 L 58.40625 202 L 58.40625 222.519531 L 2.90625 222.519531 Z M 2.90625 202 "
                clip-rule="nonzero" />
        </clipPath>
        <clipPath id="6e72e657cf">
            <path d="M 2.90625 176 L 10 176 L 10 222.519531 L 2.90625 222.519531 Z M 2.90625 176 "
                clip-rule="nonzero" />
        </clipPath>
        <clipPath id="b20fcbad86">
            <path d="M 51 176 L 58.40625 176 L 58.40625 222.519531 L 51 222.519531 Z M 51 176 "
                clip-rule="nonzero" />
        </clipPath>
        <clipPath id="bd15389736">
            <path d="M 2.90625 202 L 14 202 L 14 222.519531 L 2.90625 222.519531 Z M 2.90625 202 "
                clip-rule="nonzero" />
        </clipPath>
        <clipPath id="6eb116cd80">
            <path d="M 47 202 L 58.40625 202 L 58.40625 222.519531 L 47 222.519531 Z M 47 202 "
                clip-rule="nonzero" />
        </clipPath>
        <clipPath id="4678fc0812">
            <path d="M 9 172.269531 L 52 172.269531 L 52 207 L 9 207 Z M 9 172.269531 "
                clip-rule="nonzero" />
        </clipPath>
        <clipPath id="b892b7451d">
            <path
                d="M 18.277344 177.722656 L 42.839844 177.722656 L 42.839844 200.589844 L 18.277344 200.589844 Z M 18.277344 177.722656 "
                clip-rule="nonzero" />
        </clipPath>
        <clipPath id="04d778baf1">
            <path
                d="M 29.710938 177.722656 L 31.394531 177.722656 C 34.425781 177.722656 37.335938 178.925781 39.480469 181.070312 C 41.625 183.214844 42.828125 186.121094 42.828125 189.15625 C 42.828125 192.1875 41.625 195.09375 39.480469 197.238281 C 37.335938 199.382812 34.425781 200.589844 31.394531 200.589844 L 29.710938 200.589844 C 26.675781 200.589844 23.769531 199.382812 21.625 197.238281 C 19.480469 195.09375 18.277344 192.1875 18.277344 189.15625 C 18.277344 186.121094 19.480469 183.214844 21.625 181.070312 C 23.769531 178.925781 26.675781 177.722656 29.710938 177.722656 Z M 29.710938 177.722656 "
                clip-rule="nonzero" />
        </clipPath>
        <clipPath id="8292adf6f2">
            <path
                d="M 24 175.457031 L 44.601562 175.457031 L 44.601562 195 L 24 195 Z M 24 175.457031 "
                clip-rule="nonzero" />
        </clipPath>
        <clipPath id="e83770d737">
            <path d="M 16.851562 198 L 21 198 L 21 203 L 16.851562 203 Z M 16.851562 198 "
                clip-rule="nonzero" />
        </clipPath>
        <clipPath id="f7036e4248">
            <path
                d="M 18.277344 175.457031 L 38 175.457031 L 38 195 L 18.277344 195 Z M 18.277344 175.457031 "
                clip-rule="nonzero" />
        </clipPath>
        <clipPath id="75cbe78b92">
            <path d="M 36 193 L 45.664062 193 L 45.664062 203 L 36 203 Z M 36 193 "
                clip-rule="nonzero" />
        </clipPath>
        <clipPath id="f8e91eb0d3">
            <path d="M 41 198 L 45.664062 198 L 45.664062 203 L 41 203 Z M 41 198 "
                clip-rule="nonzero" />
        </clipPath>
    </defs>
    <g clip-path="url(#f4e89d9e54)">
        <path fill="#000000"
            d="M 47.039062 176.839844 L 14.054688 176.839844 C 11.457031 176.839844 9.144531 178.503906 8.320312 180.96875 L 2.90625 197.121094 L 2.90625 226.714844 L 58.183594 226.714844 L 58.183594 197.121094 L 52.773438 180.96875 C 51.945312 178.5 49.636719 176.839844 47.039062 176.839844 Z M 47.039062 176.839844 "
            fill-opacity="1" fill-rule="nonzero" />
    </g>
    <g clip-path="url(#910642757a)">
        <path fill="#000000"
            d="M 51.390625 207 L 30.546875 211.089844 L 9.703125 207 L 2.90625 226.714844 L 58.183594 226.714844 Z M 51.390625 207 "
            fill-opacity="1" fill-rule="nonzero" />
    </g>
    <g clip-path="url(#c95a1c35bf)">
        <path fill="#000000"
            d="M 9.703125 182.351562 L 8.292969 211.089844 L 2.90625 226.714844 L 2.90625 197.121094 L 7.953125 182.066406 C 8.273438 181.101562 9.703125 181.332031 9.703125 182.351562 Z M 9.703125 182.351562 "
            fill-opacity="1" fill-rule="nonzero" />
    </g>
    <g clip-path="url(#0db01f27d7)">
        <path fill="#000000"
            d="M 51.390625 182.351562 L 52.800781 211.089844 L 58.183594 226.714844 L 58.183594 197.121094 L 53.140625 182.066406 C 52.820312 181.101562 51.390625 181.332031 51.390625 182.351562 Z M 51.390625 182.351562 "
            fill-opacity="1" fill-rule="nonzero" />
    </g>
    <g clip-path="url(#1e144837c2)">
        <path fill="#000000"
            d="M 2.90625 226.714844 L 13.789062 211.089844 L 9.703125 207 Z M 2.90625 226.714844 "
            fill-opacity="1" fill-rule="nonzero" />
    </g>
    <g clip-path="url(#3ed7495f83)">
        <path fill="#000000"
            d="M 51.390625 207 L 47.304688 211.089844 L 58.183594 226.714844 Z M 51.390625 207 "
            fill-opacity="1" fill-rule="nonzero" />
    </g>
    <g clip-path="url(#3126f02498)">
        <path fill="#2252ab"
            d="M 13.789062 176.839844 L 47.304688 176.839844 C 47.574219 176.839844 47.839844 176.867188 48.101562 176.917969 C 48.363281 176.972656 48.621094 177.046875 48.867188 177.152344 C 49.117188 177.253906 49.351562 177.378906 49.574219 177.527344 C 49.796875 177.679688 50.003906 177.847656 50.195312 178.039062 C 50.386719 178.226562 50.554688 178.433594 50.703125 178.65625 C 50.851562 178.878906 50.980469 179.117188 51.082031 179.363281 C 51.183594 179.613281 51.261719 179.867188 51.3125 180.132812 C 51.367188 180.394531 51.390625 180.660156 51.390625 180.929688 L 51.390625 207 C 51.390625 207.269531 51.367188 207.535156 51.3125 207.796875 C 51.261719 208.0625 51.183594 208.316406 51.082031 208.566406 C 50.980469 208.8125 50.851562 209.046875 50.703125 209.273438 C 50.554688 209.496094 50.386719 209.703125 50.195312 209.890625 C 50.003906 210.082031 49.796875 210.25 49.574219 210.398438 C 49.351562 210.550781 49.117188 210.675781 48.867188 210.777344 C 48.621094 210.878906 48.363281 210.957031 48.101562 211.011719 C 47.839844 211.0625 47.574219 211.089844 47.304688 211.089844 L 13.789062 211.089844 C 13.523438 211.089844 13.253906 211.0625 12.992188 211.011719 C 12.730469 210.957031 12.472656 210.878906 12.226562 210.777344 C 11.976562 210.675781 11.742188 210.550781 11.519531 210.398438 C 11.296875 210.25 11.089844 210.082031 10.898438 209.890625 C 10.710938 209.703125 10.539062 209.496094 10.390625 209.273438 C 10.242188 209.046875 10.117188 208.8125 10.011719 208.566406 C 9.910156 208.316406 9.832031 208.0625 9.78125 207.796875 C 9.726562 207.535156 9.703125 207.269531 9.703125 207 L 9.703125 180.929688 C 9.703125 180.660156 9.726562 180.394531 9.78125 180.132812 C 9.832031 179.867188 9.910156 179.613281 10.011719 179.363281 C 10.117188 179.117188 10.242188 178.878906 10.390625 178.65625 C 10.539062 178.433594 10.710938 178.226562 10.898438 178.039062 C 11.089844 177.847656 11.296875 177.679688 11.519531 177.527344 C 11.742188 177.378906 11.976562 177.253906 12.226562 177.152344 C 12.472656 177.046875 12.730469 176.972656 12.992188 176.917969 C 13.253906 176.867188 13.523438 176.839844 13.789062 176.839844 Z M 13.789062 176.839844 "
            fill-opacity="1" fill-rule="nonzero" />
    </g>
    <path fill="#000000"
        d="M 34.15625 184.1875 L 23.453125 184.1875 L 23.453125 203.222656 L 34.15625 203.222656 L 37.636719 199.738281 L 37.636719 187.667969 Z M 34.15625 198.296875 L 32.714844 199.738281 L 26.9375 199.738281 L 26.9375 195.445312 L 34.15625 195.445312 Z M 26.9375 191.960938 L 26.9375 187.667969 L 32.714844 187.667969 L 34.15625 189.109375 L 34.15625 191.960938 Z M 26.9375 191.960938 "
        fill-opacity="1" fill-rule="nonzero" />
    <g clip-path="url(#4b1574b354)">
        <path fill="#d8d8d8"
            d="M 47.214844 172.265625 L 14.101562 172.265625 C 11.488281 172.265625 9.171875 173.941406 8.339844 176.425781 L 2.90625 192.695312 L 2.90625 222.503906 L 58.40625 222.503906 L 58.40625 192.695312 L 52.976562 176.425781 C 52.144531 173.941406 49.824219 172.265625 47.214844 172.265625 Z M 47.214844 172.265625 "
            fill-opacity="1" fill-rule="nonzero" />
    </g>
    <g clip-path="url(#bd31011e8d)">
        <path fill="#eaeaea"
            d="M 51.585938 202.648438 L 30.65625 206.765625 L 9.730469 202.648438 L 2.90625 222.503906 L 58.40625 222.503906 Z M 51.585938 202.648438 "
            fill-opacity="1" fill-rule="nonzero" />
    </g>
    <g clip-path="url(#6e72e657cf)">
        <path fill="#d8d8d8"
            d="M 9.730469 177.820312 L 8.316406 206.765625 L 2.90625 222.503906 L 2.90625 192.695312 L 7.972656 177.53125 C 8.296875 176.558594 9.730469 176.792969 9.730469 177.820312 Z M 9.730469 177.820312 "
            fill-opacity="1" fill-rule="nonzero" />
    </g>
    <g clip-path="url(#b20fcbad86)">
        <path fill="#d8d8d8"
            d="M 51.585938 177.820312 L 53 206.765625 L 58.40625 222.503906 L 58.40625 192.695312 L 53.34375 177.53125 C 53.019531 176.558594 51.585938 176.792969 51.585938 177.820312 Z M 51.585938 177.820312 "
            fill-opacity="1" fill-rule="nonzero" />
    </g>
    <g clip-path="url(#bd15389736)">
        <path fill="#f2f2f2"
            d="M 2.90625 222.503906 L 13.832031 206.765625 L 9.730469 202.648438 Z M 2.90625 222.503906 "
            fill-opacity="1" fill-rule="nonzero" />
    </g>
    <g clip-path="url(#6eb116cd80)">
        <path fill="#f2f2f2"
            d="M 51.585938 202.648438 L 47.484375 206.765625 L 58.40625 222.503906 Z M 51.585938 202.648438 "
            fill-opacity="1" fill-rule="nonzero" />
    </g>
    <g clip-path="url(#4678fc0812)">
        <path fill="#ffffff"
            d="M 13.832031 172.265625 L 47.484375 172.265625 C 47.753906 172.265625 48.019531 172.292969 48.285156 172.347656 C 48.546875 172.398438 48.804688 172.476562 49.054688 172.582031 C 49.304688 172.683594 49.539062 172.8125 49.761719 172.960938 C 49.988281 173.109375 50.195312 173.28125 50.386719 173.472656 C 50.574219 173.664062 50.746094 173.871094 50.894531 174.097656 C 51.046875 174.320312 51.171875 174.558594 51.273438 174.808594 C 51.378906 175.058594 51.457031 175.316406 51.507812 175.582031 C 51.5625 175.847656 51.585938 176.113281 51.585938 176.386719 L 51.585938 202.648438 C 51.585938 202.917969 51.5625 203.183594 51.507812 203.449219 C 51.457031 203.714844 51.378906 203.972656 51.273438 204.222656 C 51.171875 204.472656 51.046875 204.710938 50.894531 204.933594 C 50.746094 205.160156 50.574219 205.367188 50.386719 205.558594 C 50.195312 205.75 49.988281 205.921875 49.761719 206.070312 C 49.539062 206.222656 49.304688 206.347656 49.054688 206.453125 C 48.804688 206.554688 48.546875 206.632812 48.285156 206.6875 C 48.019531 206.738281 47.753906 206.765625 47.484375 206.765625 L 13.832031 206.765625 C 13.5625 206.765625 13.296875 206.738281 13.03125 206.6875 C 12.769531 206.632812 12.511719 206.554688 12.261719 206.453125 C 12.015625 206.347656 11.777344 206.222656 11.554688 206.070312 C 11.328125 205.921875 11.121094 205.75 10.929688 205.558594 C 10.742188 205.367188 10.570312 205.160156 10.421875 204.933594 C 10.269531 204.710938 10.144531 204.472656 10.042969 204.222656 C 9.9375 203.972656 9.859375 203.714844 9.808594 203.449219 C 9.753906 203.183594 9.730469 202.917969 9.730469 202.648438 L 9.730469 176.386719 C 9.730469 176.113281 9.753906 175.847656 9.808594 175.582031 C 9.859375 175.316406 9.9375 175.058594 10.042969 174.808594 C 10.144531 174.558594 10.269531 174.320312 10.421875 174.097656 C 10.570312 173.871094 10.742188 173.664062 10.929688 173.472656 C 11.121094 173.28125 11.328125 173.109375 11.554688 172.960938 C 11.777344 172.8125 12.015625 172.683594 12.261719 172.582031 C 12.511719 172.476562 12.769531 172.398438 13.03125 172.347656 C 13.296875 172.292969 13.5625 172.265625 13.832031 172.265625 Z M 13.832031 172.265625 "
            fill-opacity="1" fill-rule="nonzero" />
    </g>
    <path fill="#353535"
        d="M 34.28125 179.667969 L 23.539062 179.667969 L 23.539062 198.839844 L 34.28125 198.839844 L 37.777344 195.332031 L 37.777344 183.175781 Z M 34.28125 193.878906 L 32.832031 195.332031 L 27.035156 195.332031 L 27.035156 191.007812 L 34.28125 191.007812 Z M 27.035156 187.496094 L 27.035156 183.175781 L 32.832031 183.175781 L 34.28125 184.625 L 34.28125 187.496094 Z M 27.035156 187.496094 "
        fill-opacity="1" fill-rule="nonzero" />
    <g clip-path="url(#b892b7451d)">
        <g clip-path="url(#04d778baf1)">
            <path fill="#ffffff"
                d="M 18.277344 177.722656 L 42.839844 177.722656 L 42.839844 200.589844 L 18.277344 200.589844 Z M 18.277344 177.722656 "
                fill-opacity="1" fill-rule="nonzero" />
        </g>
    </g>
    <path fill="#231f20"
        d="M 20.960938 190.308594 L 25.910156 193.785156 L 29.386719 198.734375 L 28.019531 200.105469 L 19.589844 191.675781 Z M 20.960938 190.308594 "
        fill-opacity="1" fill-rule="nonzero" />
    <g clip-path="url(#8292adf6f2)">
        <path fill="#231f20"
            d="M 26.648438 193.046875 L 27.808594 194.835938 L 42.132812 181.777344 L 44.238281 175.457031 L 37.917969 177.5625 L 24.859375 191.886719 Z M 26.648438 193.046875 "
            fill-opacity="1" fill-rule="nonzero" />
    </g>
    <path fill="#231f20"
        d="M 18.855469 202.210938 L 17.484375 200.839844 L 23.066406 193.785156 L 25.910156 196.628906 Z M 18.855469 202.210938 "
        fill-opacity="1" fill-rule="nonzero" />
    <g clip-path="url(#e83770d737)">
        <path fill="#231f20"
            d="M 20.855469 200.839844 C 20.855469 201.105469 20.804688 201.363281 20.703125 201.605469 C 20.601562 201.851562 20.457031 202.070312 20.269531 202.257812 C 20.082031 202.445312 19.863281 202.589844 19.621094 202.691406 C 19.375 202.792969 19.121094 202.84375 18.855469 202.84375 C 18.589844 202.84375 18.332031 202.792969 18.089844 202.691406 C 17.84375 202.589844 17.625 202.445312 17.4375 202.257812 C 17.25 202.070312 17.105469 201.851562 17.003906 201.605469 C 16.902344 201.363281 16.851562 201.105469 16.851562 200.839844 C 16.851562 200.574219 16.902344 200.320312 17.003906 200.074219 C 17.105469 199.832031 17.25 199.613281 17.4375 199.425781 C 17.625 199.238281 17.84375 199.09375 18.089844 198.992188 C 18.332031 198.890625 18.589844 198.839844 18.855469 198.839844 C 19.121094 198.839844 19.375 198.890625 19.621094 198.992188 C 19.863281 199.09375 20.082031 199.238281 20.269531 199.425781 C 20.457031 199.613281 20.601562 199.832031 20.703125 200.074219 C 20.804688 200.320312 20.855469 200.574219 20.855469 200.839844 Z M 20.855469 200.839844 "
            fill-opacity="1" fill-rule="nonzero" />
    </g>
    <g fill="#000000" fill-opacity="1">
        <g transform="translate(82.01728, 224.821662)">
            <g>
                <path
                    d="M 11.125 -29.515625 C 12.351562 -31.679688 14.160156 -33.445312 16.546875 -34.8125 C 18.929688 -36.175781 21.644531 -36.859375 24.6875 -36.859375 C 27.945312 -36.859375 30.878906 -36.085938 33.484375 -34.546875 C 36.085938 -33.003906 38.140625 -30.832031 39.640625 -28.03125 C 41.140625 -25.226562 41.890625 -21.972656 41.890625 -18.265625 C 41.890625 -14.609375 41.140625 -11.34375 39.640625 -8.46875 C 38.140625 -5.601562 36.078125 -3.375 33.453125 -1.78125 C 30.828125 -0.195312 27.90625 0.59375 24.6875 0.59375 C 21.550781 0.59375 18.800781 -0.0859375 16.4375 -1.453125 C 14.082031 -2.828125 12.3125 -4.570312 11.125 -6.6875 L 11.125 0 L 5.09375 0 L 5.09375 -48.984375 L 11.125 -48.984375 Z M 35.734375 -18.265625 C 35.734375 -21.003906 35.179688 -23.382812 34.078125 -25.40625 C 32.984375 -27.4375 31.5 -28.984375 29.625 -30.046875 C 27.75 -31.109375 25.6875 -31.640625 23.4375 -31.640625 C 21.226562 -31.640625 19.1875 -31.097656 17.3125 -30.015625 C 15.4375 -28.929688 13.9375 -27.363281 12.8125 -25.3125 C 11.6875 -23.257812 11.125 -20.890625 11.125 -18.203125 C 11.125 -15.460938 11.6875 -13.066406 12.8125 -11.015625 C 13.9375 -8.960938 15.4375 -7.394531 17.3125 -6.3125 C 19.1875 -5.238281 21.226562 -4.703125 23.4375 -4.703125 C 25.6875 -4.703125 27.75 -5.238281 29.625 -6.3125 C 31.5 -7.394531 32.984375 -8.960938 34.078125 -11.015625 C 35.179688 -13.066406 35.734375 -15.484375 35.734375 -18.265625 Z M 35.734375 -18.265625 " />
            </g>
        </g>
    </g>
    <g fill="#000000" fill-opacity="1">
        <g transform="translate(120.728434, 224.821662)">
            <g>
                <path
                    d="M 2.84375 -18.265625 C 2.84375 -21.972656 3.59375 -25.226562 5.09375 -28.03125 C 6.59375 -30.832031 8.65625 -33.003906 11.28125 -34.546875 C 13.90625 -36.085938 16.832031 -36.859375 20.0625 -36.859375 C 23.226562 -36.859375 25.984375 -36.175781 28.328125 -34.8125 C 30.671875 -33.445312 32.414062 -31.726562 33.5625 -29.65625 L 33.5625 -36.265625 L 39.640625 -36.265625 L 39.640625 0 L 33.5625 0 L 33.5625 -6.75 C 32.363281 -4.632812 30.582031 -2.878906 28.21875 -1.484375 C 25.863281 -0.0976562 23.117188 0.59375 19.984375 0.59375 C 16.765625 0.59375 13.851562 -0.195312 11.25 -1.78125 C 8.644531 -3.375 6.59375 -5.601562 5.09375 -8.46875 C 3.59375 -11.34375 2.84375 -14.609375 2.84375 -18.265625 Z M 33.5625 -18.203125 C 33.5625 -20.941406 33.007812 -23.320312 31.90625 -25.34375 C 30.800781 -27.375 29.3125 -28.929688 27.4375 -30.015625 C 25.5625 -31.097656 23.5 -31.640625 21.25 -31.640625 C 19 -31.640625 16.945312 -31.109375 15.09375 -30.046875 C 13.238281 -28.984375 11.757812 -27.4375 10.65625 -25.40625 C 9.550781 -23.382812 9 -21.003906 9 -18.265625 C 9 -15.484375 9.550781 -13.066406 10.65625 -11.015625 C 11.757812 -8.960938 13.238281 -7.394531 15.09375 -6.3125 C 16.945312 -5.238281 19 -4.703125 21.25 -4.703125 C 23.5 -4.703125 25.5625 -5.238281 27.4375 -6.3125 C 29.3125 -7.394531 30.800781 -8.960938 31.90625 -11.015625 C 33.007812 -13.066406 33.5625 -15.460938 33.5625 -18.203125 Z M 33.5625 -18.203125 " />
            </g>
        </g>
    </g>
    <g fill="#000000" fill-opacity="1">
        <g transform="translate(159.439587, 224.821662)">
            <g>
                <path
                    d="M 12.4375 -31.3125 L 12.4375 -9.921875 C 12.4375 -8.160156 12.8125 -6.914062 13.5625 -6.1875 C 14.3125 -5.457031 15.613281 -5.09375 17.46875 -5.09375 L 21.90625 -5.09375 L 21.90625 0 L 16.484375 0 C 13.128906 0 10.613281 -0.769531 8.9375 -2.3125 C 7.257812 -3.863281 6.421875 -6.398438 6.421875 -9.921875 L 6.421875 -31.3125 L 1.71875 -31.3125 L 1.71875 -36.265625 L 6.421875 -36.265625 L 6.421875 -45.40625 L 12.4375 -45.40625 L 12.4375 -36.265625 L 21.90625 -36.265625 L 21.90625 -31.3125 Z M 12.4375 -31.3125 " />
            </g>
        </g>
    </g>
    <g fill="#000000" fill-opacity="1">
        <g transform="translate(177.504078, 224.821662)">
            <g>
                <path
                    d="M 12.4375 -31.3125 L 12.4375 -9.921875 C 12.4375 -8.160156 12.8125 -6.914062 13.5625 -6.1875 C 14.3125 -5.457031 15.613281 -5.09375 17.46875 -5.09375 L 21.90625 -5.09375 L 21.90625 0 L 16.484375 0 C 13.128906 0 10.613281 -0.769531 8.9375 -2.3125 C 7.257812 -3.863281 6.421875 -6.398438 6.421875 -9.921875 L 6.421875 -31.3125 L 1.71875 -31.3125 L 1.71875 -36.265625 L 6.421875 -36.265625 L 6.421875 -45.40625 L 12.4375 -45.40625 L 12.4375 -36.265625 L 21.90625 -36.265625 L 21.90625 -31.3125 Z M 12.4375 -31.3125 " />
            </g>
        </g>
    </g>
    <g fill="#000000" fill-opacity="1">
        <g transform="translate(195.568569, 224.821662)">
            <g>
                <path
                    d="M 11.125 -48.984375 L 11.125 0 L 5.09375 0 L 5.09375 -48.984375 Z M 11.125 -48.984375 " />
            </g>
        </g>
    </g>
    <g fill="#000000" fill-opacity="1">
        <g transform="translate(205.824374, 224.821662)">
            <g>
                <path
                    d="M 38.1875 -19.53125 C 38.1875 -18.375 38.117188 -17.160156 37.984375 -15.890625 L 9 -15.890625 C 9.21875 -12.316406 10.441406 -9.523438 12.671875 -7.515625 C 14.898438 -5.503906 17.601562 -4.5 20.78125 -4.5 C 23.382812 -4.5 25.554688 -5.101562 27.296875 -6.3125 C 29.046875 -7.53125 30.269531 -9.15625 30.96875 -11.1875 L 37.46875 -11.1875 C 36.488281 -7.695312 34.539062 -4.859375 31.625 -2.671875 C 28.71875 -0.492188 25.101562 0.59375 20.78125 0.59375 C 17.34375 0.59375 14.265625 -0.175781 11.546875 -1.71875 C 8.835938 -3.257812 6.707031 -5.453125 5.15625 -8.296875 C 3.613281 -11.148438 2.84375 -14.453125 2.84375 -18.203125 C 2.84375 -21.953125 3.59375 -25.238281 5.09375 -28.0625 C 6.59375 -30.882812 8.695312 -33.054688 11.40625 -34.578125 C 14.125 -36.097656 17.25 -36.859375 20.78125 -36.859375 C 24.226562 -36.859375 27.273438 -36.109375 29.921875 -34.609375 C 32.566406 -33.109375 34.601562 -31.046875 36.03125 -28.421875 C 37.46875 -25.796875 38.1875 -22.832031 38.1875 -19.53125 Z M 31.96875 -20.78125 C 31.96875 -23.070312 31.457031 -25.046875 30.4375 -26.703125 C 29.425781 -28.359375 28.046875 -29.613281 26.296875 -30.46875 C 24.554688 -31.332031 22.628906 -31.765625 20.515625 -31.765625 C 17.472656 -31.765625 14.878906 -30.796875 12.734375 -28.859375 C 10.597656 -26.921875 9.375 -24.226562 9.0625 -20.78125 Z M 31.96875 -20.78125 " />
            </g>
        </g>
    </g>
    <g fill="#fefefe" fill-opacity="1">
        <g transform="translate(76.946834, 220.567053)">
            <g>
                <path
                    d="M 11.125 -29.515625 C 12.351562 -31.679688 14.160156 -33.445312 16.546875 -34.8125 C 18.929688 -36.175781 21.644531 -36.859375 24.6875 -36.859375 C 27.945312 -36.859375 30.878906 -36.085938 33.484375 -34.546875 C 36.085938 -33.003906 38.140625 -30.832031 39.640625 -28.03125 C 41.140625 -25.226562 41.890625 -21.972656 41.890625 -18.265625 C 41.890625 -14.609375 41.140625 -11.34375 39.640625 -8.46875 C 38.140625 -5.601562 36.078125 -3.375 33.453125 -1.78125 C 30.828125 -0.195312 27.90625 0.59375 24.6875 0.59375 C 21.550781 0.59375 18.800781 -0.0859375 16.4375 -1.453125 C 14.082031 -2.828125 12.3125 -4.570312 11.125 -6.6875 L 11.125 0 L 5.09375 0 L 5.09375 -48.984375 L 11.125 -48.984375 Z M 35.734375 -18.265625 C 35.734375 -21.003906 35.179688 -23.382812 34.078125 -25.40625 C 32.984375 -27.4375 31.5 -28.984375 29.625 -30.046875 C 27.75 -31.109375 25.6875 -31.640625 23.4375 -31.640625 C 21.226562 -31.640625 19.1875 -31.097656 17.3125 -30.015625 C 15.4375 -28.929688 13.9375 -27.363281 12.8125 -25.3125 C 11.6875 -23.257812 11.125 -20.890625 11.125 -18.203125 C 11.125 -15.460938 11.6875 -13.066406 12.8125 -11.015625 C 13.9375 -8.960938 15.4375 -7.394531 17.3125 -6.3125 C 19.1875 -5.238281 21.226562 -4.703125 23.4375 -4.703125 C 25.6875 -4.703125 27.75 -5.238281 29.625 -6.3125 C 31.5 -7.394531 32.984375 -8.960938 34.078125 -11.015625 C 35.179688 -13.066406 35.734375 -15.484375 35.734375 -18.265625 Z M 35.734375 -18.265625 " />
            </g>
        </g>
    </g>
    <g fill="#fefefe" fill-opacity="1">
        <g transform="translate(115.657988, 220.567053)">
            <g>
                <path
                    d="M 2.84375 -18.265625 C 2.84375 -21.972656 3.59375 -25.226562 5.09375 -28.03125 C 6.59375 -30.832031 8.65625 -33.003906 11.28125 -34.546875 C 13.90625 -36.085938 16.832031 -36.859375 20.0625 -36.859375 C 23.226562 -36.859375 25.984375 -36.175781 28.328125 -34.8125 C 30.671875 -33.445312 32.414062 -31.726562 33.5625 -29.65625 L 33.5625 -36.265625 L 39.640625 -36.265625 L 39.640625 0 L 33.5625 0 L 33.5625 -6.75 C 32.363281 -4.632812 30.582031 -2.878906 28.21875 -1.484375 C 25.863281 -0.0976562 23.117188 0.59375 19.984375 0.59375 C 16.765625 0.59375 13.851562 -0.195312 11.25 -1.78125 C 8.644531 -3.375 6.59375 -5.601562 5.09375 -8.46875 C 3.59375 -11.34375 2.84375 -14.609375 2.84375 -18.265625 Z M 33.5625 -18.203125 C 33.5625 -20.941406 33.007812 -23.320312 31.90625 -25.34375 C 30.800781 -27.375 29.3125 -28.929688 27.4375 -30.015625 C 25.5625 -31.097656 23.5 -31.640625 21.25 -31.640625 C 19 -31.640625 16.945312 -31.109375 15.09375 -30.046875 C 13.238281 -28.984375 11.757812 -27.4375 10.65625 -25.40625 C 9.550781 -23.382812 9 -21.003906 9 -18.265625 C 9 -15.484375 9.550781 -13.066406 10.65625 -11.015625 C 11.757812 -8.960938 13.238281 -7.394531 15.09375 -6.3125 C 16.945312 -5.238281 19 -4.703125 21.25 -4.703125 C 23.5 -4.703125 25.5625 -5.238281 27.4375 -6.3125 C 29.3125 -7.394531 30.800781 -8.960938 31.90625 -11.015625 C 33.007812 -13.066406 33.5625 -15.460938 33.5625 -18.203125 Z M 33.5625 -18.203125 " />
            </g>
        </g>
    </g>
    <g fill="#fefefe" fill-opacity="1">
        <g transform="translate(154.369141, 220.567053)">
            <g>
                <path
                    d="M 12.4375 -31.3125 L 12.4375 -9.921875 C 12.4375 -8.160156 12.8125 -6.914062 13.5625 -6.1875 C 14.3125 -5.457031 15.613281 -5.09375 17.46875 -5.09375 L 21.90625 -5.09375 L 21.90625 0 L 16.484375 0 C 13.128906 0 10.613281 -0.769531 8.9375 -2.3125 C 7.257812 -3.863281 6.421875 -6.398438 6.421875 -9.921875 L 6.421875 -31.3125 L 1.71875 -31.3125 L 1.71875 -36.265625 L 6.421875 -36.265625 L 6.421875 -45.40625 L 12.4375 -45.40625 L 12.4375 -36.265625 L 21.90625 -36.265625 L 21.90625 -31.3125 Z M 12.4375 -31.3125 " />
            </g>
        </g>
    </g>
    <g fill="#fefefe" fill-opacity="1">
        <g transform="translate(172.433632, 220.567053)">
            <g>
                <path
                    d="M 12.4375 -31.3125 L 12.4375 -9.921875 C 12.4375 -8.160156 12.8125 -6.914062 13.5625 -6.1875 C 14.3125 -5.457031 15.613281 -5.09375 17.46875 -5.09375 L 21.90625 -5.09375 L 21.90625 0 L 16.484375 0 C 13.128906 0 10.613281 -0.769531 8.9375 -2.3125 C 7.257812 -3.863281 6.421875 -6.398438 6.421875 -9.921875 L 6.421875 -31.3125 L 1.71875 -31.3125 L 1.71875 -36.265625 L 6.421875 -36.265625 L 6.421875 -45.40625 L 12.4375 -45.40625 L 12.4375 -36.265625 L 21.90625 -36.265625 L 21.90625 -31.3125 Z M 12.4375 -31.3125 " />
            </g>
        </g>
    </g>
    <g fill="#fefefe" fill-opacity="1">
        <g transform="translate(190.498123, 220.567053)">
            <g>
                <path
                    d="M 11.125 -48.984375 L 11.125 0 L 5.09375 0 L 5.09375 -48.984375 Z M 11.125 -48.984375 " />
            </g>
        </g>
    </g>
    <g fill="#fefefe" fill-opacity="1">
        <g transform="translate(200.753928, 220.567053)">
            <g>
                <path
                    d="M 38.1875 -19.53125 C 38.1875 -18.375 38.117188 -17.160156 37.984375 -15.890625 L 9 -15.890625 C 9.21875 -12.316406 10.441406 -9.523438 12.671875 -7.515625 C 14.898438 -5.503906 17.601562 -4.5 20.78125 -4.5 C 23.382812 -4.5 25.554688 -5.101562 27.296875 -6.3125 C 29.046875 -7.53125 30.269531 -9.15625 30.96875 -11.1875 L 37.46875 -11.1875 C 36.488281 -7.695312 34.539062 -4.859375 31.625 -2.671875 C 28.71875 -0.492188 25.101562 0.59375 20.78125 0.59375 C 17.34375 0.59375 14.265625 -0.175781 11.546875 -1.71875 C 8.835938 -3.257812 6.707031 -5.453125 5.15625 -8.296875 C 3.613281 -11.148438 2.84375 -14.453125 2.84375 -18.203125 C 2.84375 -21.953125 3.59375 -25.238281 5.09375 -28.0625 C 6.59375 -30.882812 8.695312 -33.054688 11.40625 -34.578125 C 14.125 -36.097656 17.25 -36.859375 20.78125 -36.859375 C 24.226562 -36.859375 27.273438 -36.109375 29.921875 -34.609375 C 32.566406 -33.109375 34.601562 -31.046875 36.03125 -28.421875 C 37.46875 -25.796875 38.1875 -22.832031 38.1875 -19.53125 Z M 31.96875 -20.78125 C 31.96875 -23.070312 31.457031 -25.046875 30.4375 -26.703125 C 29.425781 -28.359375 28.046875 -29.613281 26.296875 -30.46875 C 24.554688 -31.332031 22.628906 -31.765625 20.515625 -31.765625 C 17.472656 -31.765625 14.878906 -30.796875 12.734375 -28.859375 C 10.597656 -26.921875 9.375 -24.226562 9.0625 -20.78125 Z M 31.96875 -20.78125 " />
            </g>
        </g>
    </g>
    <g fill="#000000" fill-opacity="1">
        <g transform="translate(240.84546, 224.821662)">
            <g>
                <path
                    d="M 15.359375 -29.0625 L 15.359375 -11.3125 C 15.359375 -10.082031 15.65625 -9.191406 16.25 -8.640625 C 16.84375 -8.085938 17.847656 -7.8125 19.265625 -7.8125 L 23.5625 -7.8125 L 23.5625 0 L 17.734375 0 C 9.921875 0 6.015625 -3.796875 6.015625 -11.390625 L 6.015625 -29.0625 L 1.65625 -29.0625 L 1.65625 -36.671875 L 6.015625 -36.671875 L 6.015625 -45.734375 L 15.359375 -45.734375 L 15.359375 -36.671875 L 23.5625 -36.671875 L 23.5625 -29.0625 Z M 15.359375 -29.0625 " />
            </g>
        </g>
    </g>
    <g fill="#000000" fill-opacity="1">
        <g transform="translate(260.498161, 224.821662)">
            <g>
                <path
                    d="M 39.640625 -36.671875 L 16.9375 17.34375 L 7.078125 17.34375 L 15.03125 -0.921875 L 0.328125 -36.671875 L 10.71875 -36.671875 L 20.1875 -11.046875 L 29.78125 -36.671875 Z M 39.640625 -36.671875 " />
            </g>
        </g>
    </g>
    <g fill="#000000" fill-opacity="1">
        <g transform="translate(294.510879, 224.821662)">
            <g>
                <path
                    d="M 13.828125 -31.375 C 15.023438 -33.050781 16.671875 -34.453125 18.765625 -35.578125 C 20.859375 -36.703125 23.253906 -37.265625 25.953125 -37.265625 C 29.078125 -37.265625 31.90625 -36.488281 34.4375 -34.9375 C 36.976562 -33.394531 38.988281 -31.203125 40.46875 -28.359375 C 41.945312 -25.515625 42.6875 -22.21875 42.6875 -18.46875 C 42.6875 -14.71875 41.945312 -11.394531 40.46875 -8.5 C 38.988281 -5.613281 36.976562 -3.375 34.4375 -1.78125 C 31.90625 -0.195312 29.078125 0.59375 25.953125 0.59375 C 23.253906 0.59375 20.878906 0.0390625 18.828125 -1.0625 C 16.773438 -2.164062 15.109375 -3.554688 13.828125 -5.234375 L 13.828125 17.46875 L 4.5625 17.46875 L 4.5625 -36.671875 L 13.828125 -36.671875 Z M 33.21875 -18.46875 C 33.21875 -20.675781 32.765625 -22.582031 31.859375 -24.1875 C 30.960938 -25.800781 29.773438 -27.023438 28.296875 -27.859375 C 26.816406 -28.703125 25.21875 -29.125 23.5 -29.125 C 21.820312 -29.125 20.242188 -28.691406 18.765625 -27.828125 C 17.285156 -26.972656 16.09375 -25.726562 15.1875 -24.09375 C 14.28125 -22.457031 13.828125 -20.535156 13.828125 -18.328125 C 13.828125 -16.128906 14.28125 -14.210938 15.1875 -12.578125 C 16.09375 -10.941406 17.285156 -9.691406 18.765625 -8.828125 C 20.242188 -7.972656 21.820312 -7.546875 23.5 -7.546875 C 25.21875 -7.546875 26.816406 -7.984375 28.296875 -8.859375 C 29.773438 -9.742188 30.960938 -11.003906 31.859375 -12.640625 C 32.765625 -14.273438 33.21875 -16.21875 33.21875 -18.46875 Z M 33.21875 -18.46875 " />
            </g>
        </g>
    </g>
    <g fill="#000000" fill-opacity="1">
        <g transform="translate(333.354389, 224.821662)">
            <g>
                <path
                    d="M 38.65625 -19.125 C 38.65625 -17.800781 38.566406 -16.609375 38.390625 -15.546875 L 11.578125 -15.546875 C 11.796875 -12.898438 12.722656 -10.828125 14.359375 -9.328125 C 15.992188 -7.828125 18.003906 -7.078125 20.390625 -7.078125 C 23.828125 -7.078125 26.273438 -8.554688 27.734375 -11.515625 L 37.734375 -11.515625 C 36.671875 -7.984375 34.640625 -5.082031 31.640625 -2.8125 C 28.640625 -0.539062 24.953125 0.59375 20.578125 0.59375 C 17.054688 0.59375 13.894531 -0.1875 11.09375 -1.75 C 8.289062 -3.320312 6.101562 -5.539062 4.53125 -8.40625 C 2.96875 -11.269531 2.1875 -14.578125 2.1875 -18.328125 C 2.1875 -22.128906 2.957031 -25.460938 4.5 -28.328125 C 6.039062 -31.191406 8.203125 -33.394531 10.984375 -34.9375 C 13.765625 -36.488281 16.960938 -37.265625 20.578125 -37.265625 C 24.066406 -37.265625 27.191406 -36.515625 29.953125 -35.015625 C 32.710938 -33.515625 34.851562 -31.382812 36.375 -28.625 C 37.894531 -25.863281 38.65625 -22.695312 38.65625 -19.125 Z M 29.0625 -21.78125 C 29.007812 -24.15625 28.144531 -26.0625 26.46875 -27.5 C 24.789062 -28.9375 22.738281 -29.65625 20.3125 -29.65625 C 18.019531 -29.65625 16.085938 -28.957031 14.515625 -27.5625 C 12.953125 -26.175781 12 -24.25 11.65625 -21.78125 Z M 29.0625 -21.78125 " />
            </g>
        </g>
    </g>
    <g fill="#fefefe" fill-opacity="1">
        <g transform="translate(235.775014, 220.567053)">
            <g>
                <path
                    d="M 15.359375 -29.0625 L 15.359375 -11.3125 C 15.359375 -10.082031 15.65625 -9.191406 16.25 -8.640625 C 16.84375 -8.085938 17.847656 -7.8125 19.265625 -7.8125 L 23.5625 -7.8125 L 23.5625 0 L 17.734375 0 C 9.921875 0 6.015625 -3.796875 6.015625 -11.390625 L 6.015625 -29.0625 L 1.65625 -29.0625 L 1.65625 -36.671875 L 6.015625 -36.671875 L 6.015625 -45.734375 L 15.359375 -45.734375 L 15.359375 -36.671875 L 23.5625 -36.671875 L 23.5625 -29.0625 Z M 15.359375 -29.0625 " />
            </g>
        </g>
    </g>
    <g fill="#fefefe" fill-opacity="1">
        <g transform="translate(255.427715, 220.567053)">
            <g>
                <path
                    d="M 39.640625 -36.671875 L 16.9375 17.34375 L 7.078125 17.34375 L 15.03125 -0.921875 L 0.328125 -36.671875 L 10.71875 -36.671875 L 20.1875 -11.046875 L 29.78125 -36.671875 Z M 39.640625 -36.671875 " />
            </g>
        </g>
    </g>
    <g fill="#fefefe" fill-opacity="1">
        <g transform="translate(289.440433, 220.567053)">
            <g>
                <path
                    d="M 13.828125 -31.375 C 15.023438 -33.050781 16.671875 -34.453125 18.765625 -35.578125 C 20.859375 -36.703125 23.253906 -37.265625 25.953125 -37.265625 C 29.078125 -37.265625 31.90625 -36.488281 34.4375 -34.9375 C 36.976562 -33.394531 38.988281 -31.203125 40.46875 -28.359375 C 41.945312 -25.515625 42.6875 -22.21875 42.6875 -18.46875 C 42.6875 -14.71875 41.945312 -11.394531 40.46875 -8.5 C 38.988281 -5.613281 36.976562 -3.375 34.4375 -1.78125 C 31.90625 -0.195312 29.078125 0.59375 25.953125 0.59375 C 23.253906 0.59375 20.878906 0.0390625 18.828125 -1.0625 C 16.773438 -2.164062 15.109375 -3.554688 13.828125 -5.234375 L 13.828125 17.46875 L 4.5625 17.46875 L 4.5625 -36.671875 L 13.828125 -36.671875 Z M 33.21875 -18.46875 C 33.21875 -20.675781 32.765625 -22.582031 31.859375 -24.1875 C 30.960938 -25.800781 29.773438 -27.023438 28.296875 -27.859375 C 26.816406 -28.703125 25.21875 -29.125 23.5 -29.125 C 21.820312 -29.125 20.242188 -28.691406 18.765625 -27.828125 C 17.285156 -26.972656 16.09375 -25.726562 15.1875 -24.09375 C 14.28125 -22.457031 13.828125 -20.535156 13.828125 -18.328125 C 13.828125 -16.128906 14.28125 -14.210938 15.1875 -12.578125 C 16.09375 -10.941406 17.285156 -9.691406 18.765625 -8.828125 C 20.242188 -7.972656 21.820312 -7.546875 23.5 -7.546875 C 25.21875 -7.546875 26.816406 -7.984375 28.296875 -8.859375 C 29.773438 -9.742188 30.960938 -11.003906 31.859375 -12.640625 C 32.765625 -14.273438 33.21875 -16.21875 33.21875 -18.46875 Z M 33.21875 -18.46875 " />
            </g>
        </g>
    </g>
    <g fill="#fefefe" fill-opacity="1">
        <g transform="translate(328.283943, 220.567053)">
            <g>
                <path
                    d="M 38.65625 -19.125 C 38.65625 -17.800781 38.566406 -16.609375 38.390625 -15.546875 L 11.578125 -15.546875 C 11.796875 -12.898438 12.722656 -10.828125 14.359375 -9.328125 C 15.992188 -7.828125 18.003906 -7.078125 20.390625 -7.078125 C 23.828125 -7.078125 26.273438 -8.554688 27.734375 -11.515625 L 37.734375 -11.515625 C 36.671875 -7.984375 34.640625 -5.082031 31.640625 -2.8125 C 28.640625 -0.539062 24.953125 0.59375 20.578125 0.59375 C 17.054688 0.59375 13.894531 -0.1875 11.09375 -1.75 C 8.289062 -3.320312 6.101562 -5.539062 4.53125 -8.40625 C 2.96875 -11.269531 2.1875 -14.578125 2.1875 -18.328125 C 2.1875 -22.128906 2.957031 -25.460938 4.5 -28.328125 C 6.039062 -31.191406 8.203125 -33.394531 10.984375 -34.9375 C 13.765625 -36.488281 16.960938 -37.265625 20.578125 -37.265625 C 24.066406 -37.265625 27.191406 -36.515625 29.953125 -35.015625 C 32.710938 -33.515625 34.851562 -31.382812 36.375 -28.625 C 37.894531 -25.863281 38.65625 -22.695312 38.65625 -19.125 Z M 29.0625 -21.78125 C 29.007812 -24.15625 28.144531 -26.0625 26.46875 -27.5 C 24.789062 -28.9375 22.738281 -29.65625 20.3125 -29.65625 C 18.019531 -29.65625 16.085938 -28.957031 14.515625 -27.5625 C 12.953125 -26.175781 12 -24.25 11.65625 -21.78125 Z M 29.0625 -21.78125 " />
            </g>
        </g>
    </g>
    <path fill="#231f20"
        d="M 41.554688 190.308594 L 36.605469 193.785156 L 33.128906 198.734375 L 34.496094 200.105469 L 42.921875 191.675781 Z M 41.554688 190.308594 "
        fill-opacity="1" fill-rule="nonzero" />
    <g clip-path="url(#f7036e4248)">
        <path fill="#231f20"
            d="M 35.867188 193.046875 L 34.707031 194.835938 L 20.382812 181.777344 L 18.277344 175.457031 L 24.597656 177.5625 L 37.65625 191.886719 Z M 35.867188 193.046875 "
            fill-opacity="1" fill-rule="nonzero" />
    </g>
    <g clip-path="url(#75cbe78b92)">
        <path fill="#231f20"
            d="M 43.660156 202.210938 L 45.03125 200.839844 L 39.449219 193.785156 L 36.605469 196.628906 Z M 43.660156 202.210938 "
            fill-opacity="1" fill-rule="nonzero" />
    </g>
    <g clip-path="url(#f8e91eb0d3)">
        <path fill="#231f20"
            d="M 41.660156 200.839844 C 41.660156 201.105469 41.710938 201.363281 41.8125 201.605469 C 41.914062 201.851562 42.058594 202.070312 42.246094 202.257812 C 42.433594 202.445312 42.648438 202.589844 42.894531 202.691406 C 43.140625 202.792969 43.394531 202.84375 43.660156 202.84375 C 43.925781 202.84375 44.183594 202.792969 44.425781 202.691406 C 44.671875 202.589844 44.886719 202.445312 45.078125 202.257812 C 45.265625 202.070312 45.410156 201.851562 45.511719 201.605469 C 45.613281 201.363281 45.664062 201.105469 45.664062 200.839844 C 45.664062 200.574219 45.613281 200.320312 45.511719 200.074219 C 45.410156 199.832031 45.265625 199.613281 45.078125 199.425781 C 44.886719 199.238281 44.671875 199.09375 44.425781 198.992188 C 44.183594 198.890625 43.925781 198.839844 43.660156 198.839844 C 43.394531 198.839844 43.140625 198.890625 42.894531 198.992188 C 42.648438 199.09375 42.433594 199.238281 42.246094 199.425781 C 42.058594 199.613281 41.914062 199.832031 41.8125 200.074219 C 41.710938 200.320312 41.660156 200.574219 41.660156 200.839844 Z M 41.660156 200.839844 "
            fill-opacity="1" fill-rule="nonzero" />
    </g>
</svg>